<svg class="" fill="none" height="48px" id="48b00fd5-d564-405c-9d49-fb17666cf86f" role="img" viewBox="0 0 802.78 241.76" width="188px" xmlns="http://www.w3.org/2000/svg" aria-labelledby="48b00fd5-d564-405c-9d49-fb17666cf86f-title"><title id="48b00fd5-d564-405c-9d49-fb17666cf86f-title">Westpac One logo</title><path fill="#d5002b" d="M350.41,61.88c-4.12,1.7-6.86,12.39-6.86,12.39l-25.38,88.62c-2.94,11.12-12.09,17-22.47,17H240c4-.74,8.38-12.5,8.38-12.5l28.32-88.23c4-13.46,10.8-17.27,21.16-17.27Z"></path><path fill="#d5002b" d="M61.4,61.88c4.12,1.7,6.86,12.39,6.86,12.39l25.38,88.62c2.94,11.12,12.09,17,22.47,17h55.73c-4-.74-8.38-12.5-8.38-12.5L135.14,79.15c-4-13.46-10.8-17.27-21.16-17.27Z"></path><rect fill="#d5002b" x="174.63" y="62.23" width="61.88" height="117.29"></rect><path fill="#222222" d="M443.55,120.05c0-29.92,20.78-48.88,48.88-48.88s46.38,20,46.38,45.72c0,30.09-20.94,49-49,49C461.84,165.93,443.55,146,443.55,120.05Zm63,3.49c0-23.27-6.15-40.73-17-40.73-9.14,0-14,13-14,30.76,0,23.27,6.15,40.56,17.12,40.56C501.74,154.13,506.56,141.33,506.56,123.54Z"></path><path fill="#222222" d="M612.31,101.43C612.31,94.62,610,91,602.17,91a49.12,49.12,0,0,0-16,2.82v49.88c0,7.64,1.83,8.48,9.31,9.47v11.14H544.81V153.13c7.48-1,10.15-1.83,10.15-9.47V95.28l-9.31-9.81v-6l35.07-9.15h5.49V88.63c6.81-7.81,17.62-17.46,32.08-17.46,16.3,0,25.27,8.82,25.27,27.27v45.22c0,7.64,2.5,8.48,10,9.47v11.14H603.17V153.13c7.48-1,9.14-1.83,9.14-9.47Z"></path><path fill="#222222" d="M740.22,109.24v6.49H685.86c0,16.29,10.64,26.43,25.27,26.43,10.64,0,18.28-4,23.94-11.3l5.48,3.65c-4.32,19-17.95,31.42-39.23,31.42-24.77,0-43.23-16.79-43.23-44.38,0-30.43,20.62-50.38,45.56-50.38C727.75,71.17,740.22,88.46,740.22,109.24Zm-54-3.49h27.26c-.16-13.63-4-23.1-12.63-23.1C691.34,82.65,687.35,93.29,686.19,105.75Z"></path></svg>